<svg xmlns="http://www.w3.org/2000/svg" width="473" height="423" viewBox="0 0 473 423" fill="none">
<g filter="url(#filter0_f_34_431)">
<path d="M315.58 312.012L277.233 370.029C276.402 371.286 275.322 372.36 274.059 373.183C272.797 374.007 271.379 374.564 269.893 374.818L48.0887 412.16C47.0322 412.332 45.9484 412.194 44.9692 411.762C43.9899 411.33 43.1574 410.623 42.5725 409.727C41.9878 408.831 41.676 407.784 41.6751 406.714C41.6743 405.644 41.9842 404.597 42.5675 403.7L80.8567 345.692C81.6879 344.435 82.768 343.361 84.0305 342.537C85.293 341.714 86.711 341.157 88.197 340.903L310.002 303.561C311.065 303.36 312.164 303.478 313.161 303.9C314.157 304.321 315.008 305.027 315.604 305.931C316.2 306.833 316.515 307.893 316.511 308.975C316.507 310.057 316.183 311.113 315.58 312.012ZM251.787 218.886C250.587 217.977 249.215 217.32 247.753 216.955C246.292 216.59 244.771 216.526 243.284 216.765L21.4796 254.106C20.4219 254.285 19.4392 254.768 18.6521 255.497C17.8649 256.225 17.3073 257.167 17.0476 258.208C16.7879 259.248 16.8375 260.342 17.19 261.354C17.5427 262.366 18.1832 263.254 19.033 263.908L74.2108 306.216C75.411 307.126 76.7834 307.783 78.245 308.147C79.7067 308.512 81.227 308.577 82.7145 308.337L304.519 270.996C305.571 270.809 306.546 270.32 307.326 269.59C308.106 268.86 308.658 267.92 308.914 266.884C309.171 265.847 309.121 264.758 308.771 263.749C308.421 262.739 307.786 261.853 306.942 261.198L251.787 218.886ZM15.9971 221.542L237.801 184.2C239.287 183.945 240.705 183.389 241.968 182.565C243.23 181.741 244.31 180.668 245.142 179.41L283.486 121.382C283.932 120.708 284.226 119.945 284.344 119.146C284.463 118.348 284.404 117.532 284.173 116.759C283.942 115.985 283.543 115.271 283.005 114.669C282.468 114.066 281.804 113.589 281.061 113.271C280.067 112.848 278.969 112.73 277.908 112.931L56.1035 150.273C54.6176 150.527 53.1995 151.084 51.9371 151.907C50.6745 152.731 49.5944 153.805 48.7633 155.062L10.476 213.081C9.88722 213.978 9.57272 215.026 9.57105 216.098C9.56939 217.17 9.88061 218.22 10.4666 219.117C11.0526 220.016 11.8879 220.723 12.8703 221.154C13.8526 221.584 14.9393 221.719 15.9971 221.542Z" fill="url(#paint0_linear_34_431)" fill-opacity="0.11"/>
<path d="M423.477 254.602L374.583 283.522C373.524 284.149 372.347 284.551 371.125 284.706C369.903 284.86 368.663 284.762 367.48 284.418L191.209 232.615C190.371 232.364 189.624 231.875 189.059 231.208C188.494 230.541 188.135 229.724 188.026 228.857C187.916 227.99 188.061 227.11 188.443 226.323C188.824 225.538 189.426 224.879 190.175 224.428L239.023 195.495C240.083 194.868 241.26 194.465 242.482 194.311C243.703 194.157 244.944 194.255 246.126 194.599L422.398 246.402C423.251 246.634 424.017 247.113 424.598 247.779C425.179 248.445 425.552 249.267 425.667 250.144C425.782 251.02 425.636 251.911 425.246 252.704C424.856 253.497 424.241 254.157 423.477 254.602ZM409.883 163.406C409.326 162.309 408.553 161.337 407.61 160.546C406.666 159.756 405.572 159.166 404.394 158.81L228.122 107.007C227.282 106.76 226.387 106.764 225.549 107.018C224.71 107.272 223.964 107.765 223.402 108.437C222.839 109.108 222.485 109.929 222.382 110.798C222.28 111.668 222.433 112.549 222.824 113.333L248.243 164.122C248.8 165.219 249.573 166.192 250.516 166.982C251.46 167.772 252.554 168.363 253.732 168.718L430.004 220.521C430.843 220.76 431.734 220.749 432.568 220.492C433.401 220.234 434.143 219.74 434.701 219.071C435.26 218.401 435.613 217.583 435.716 216.717C435.819 215.851 435.669 214.973 435.284 214.19L409.883 163.406ZM235.728 81.1272L412 132.93C413.182 133.274 414.423 133.372 415.645 133.218C416.866 133.063 418.043 132.661 419.103 132.034L467.999 103.105C468.567 102.77 469.055 102.314 469.428 101.769C469.8 101.225 470.049 100.605 470.155 99.9542C470.262 99.3032 470.224 98.6367 470.044 98.0018C469.864 97.3671 469.547 96.7794 469.115 96.2806C468.535 95.6147 467.771 95.1358 466.92 94.9045L290.648 43.1015C289.466 42.7577 288.225 42.6598 287.004 42.8139C285.782 42.968 284.605 43.3709 283.545 43.9976L234.695 72.9401C233.942 73.3883 233.336 74.046 232.952 74.8331C232.568 75.6201 232.422 76.5021 232.531 77.3708C232.641 78.2399 233.002 79.058 233.57 79.7255C234.137 80.3925 234.887 80.8797 235.728 81.1272Z" fill="url(#paint1_linear_34_431)" fill-opacity="0.11"/>
</g>
<rect x="236.889" y="34.6682" width="249.214" height="249.214" rx="76" transform="rotate(45 236.889 34.6682)" fill="url(#paint2_linear_34_431)"/>





<path d="M338.201 83.4943C335.74 81.161 337.065 77.0172 340.423 76.5454L357.738 74.1124C358.645 73.9848 359.483 73.5534 360.113 72.8885L372.143 60.2006C374.477 57.7397 378.621 59.0652 379.092 62.4234L381.525 79.7379C381.653 80.6453 382.084 81.4827 382.749 82.1131L395.437 94.1434C397.898 96.4768 396.573 100.621 393.214 101.092L375.9 103.525C374.992 103.653 374.155 104.084 373.525 104.749L361.494 117.437C359.161 119.898 355.017 118.573 354.545 115.214L352.112 97.8998C351.985 96.9924 351.553 96.1551 350.888 95.5247L338.201 83.4943Z" fill="rgb(255, 205, 138)"/>
<path d="M102.103 359.367C99.5941 359.489 98.0556 356.657 99.5234 354.618L106.499 344.927C106.896 344.377 107.094 343.707 107.061 343.029L106.483 331.103C106.361 328.594 109.193 327.056 111.232 328.523L120.922 335.499C121.473 335.896 122.142 336.094 122.82 336.061L134.746 335.483C137.256 335.361 138.794 338.193 137.326 340.232L130.351 349.922C129.954 350.473 129.756 351.142 129.789 351.82L130.367 363.746C130.489 366.256 127.657 367.794 125.618 366.326L115.928 359.351C115.377 358.954 114.708 358.756 114.03 358.789L102.103 359.367Z" fill="rgb(255, 205, 138)"/>
<defs>
<filter id="filter0_f_34_431" x="7.67104" y="40.843" width="464.443" height="373.289" filterUnits="userSpaceOnUse" color-interpolation-filters="sRGB">
<feFlood flood-opacity="0" result="BackgroundImageFix"/>
<feBlend mode="normal" in="SourceGraphic" in2="BackgroundImageFix" result="shape"/>
<feGaussianBlur stdDeviation="0.95" result="effect1_foregroundBlur_34_431"/>
</filter>
<linearGradient id="paint0_linear_34_431" x1="178.775" y1="434.929" x2="123.922" y2="88.7982" gradientUnits="userSpaceOnUse">
<stop offset="0.106454" stop-color="#999999" stop-opacity="0.01"/>
<stop offset="0.279917" stop-color="white"/>
<stop offset="0.647029" stop-color="white"/>
<stop offset="0.868737" stop-color="#999999" stop-opacity="0.01"/>
</linearGradient>
<linearGradient id="paint1_linear_34_431" x1="279.074" y1="296.025" x2="362.426" y2="22.1699" gradientUnits="userSpaceOnUse">
<stop offset="0.106454" stop-color="#999999" stop-opacity="0.01"/>
<stop offset="0.279917" stop-color="white"/>
<stop offset="0.647029" stop-color="white"/>
<stop offset="0.868737" stop-color="#999999" stop-opacity="0.01"/>
</linearGradient>
<linearGradient id="paint2_linear_34_431" x1="260.183" y1="57.8056" x2="472.669" y2="270.291" gradientUnits="userSpaceOnUse">
<stop stop-color="rgb(255, 205, 138)"/>
<stop offset="1" stop-color="rgb(217, 155, 88)"/>
</linearGradient>
</defs>
</svg>
